<svg width="32" height="32" viewBox="0 0 32 32" fill="none" xmlns="http://www.w3.org/2000/svg">
<path d="M16 2.66667C10.84 2.66667 6.66669 6.84 6.66669 12C6.66669 19 16 29.3333 16 29.3333C16 29.3333 25.3334 19 25.3334 12C25.3334 6.84 21.16 2.66667 16 2.66667ZM9.33335 12C9.33335 8.32 12.32 5.33333 16 5.33333C19.68 5.33333 22.6667 8.32 22.6667 12C22.6667 15.84 18.8267 21.5867 16 25.1733C13.2267 21.6133 9.33335 15.8 9.33335 12Z" fill="white"/>
<path d="M16 15.3333C17.841 15.3333 19.3334 13.841 19.3334 12C19.3334 10.1591 17.841 8.66667 16 8.66667C14.1591 8.66667 12.6667 10.1591 12.6667 12C12.6667 13.841 14.1591 15.3333 16 15.3333Z" fill="white"/>
</svg>
